<svg id="レイヤー_1" data-name="レイヤー 1" xmlns="http://www.w3.org/2000/svg" viewBox="0 0 323.57 195.18"><defs><style>.cls-1{fill:#fff;}.cls-2{fill:#231815;}.cls-3{fill:#e60012;}</style></defs><rect class="cls-1" x="2" y="2" width="319.57" height="191.18"/><path class="cls-2" d="M459.42,491.91H135.85V296.72H459.42Zm-319.57-4H455.42V300.72H139.85Z" transform="translate(-135.85 -296.72)"/><rect class="cls-1" x="247.05" y="12.79" width="62.62" height="44.72"/><path class="cls-2" d="M447,355.73H381.4V308H447Zm-62.63-3H444V311H384.4Z" transform="translate(-135.85 -296.72)"/><path class="cls-2" d="M237.59,407.14a95.91,95.91,0,0,1-4.18,11.48,69.71,69.71,0,0,1-13.91,1.82c-18.16,0-27.43-12.08-27.43-25.38,0-15.51,11.78-26.22,28.8-26.22a77.82,77.82,0,0,1,14.37,1.74c.3,3.42.83,8,1.44,11.78l-2.36.54c-1.52-5.1-3.34-8.21-7.22-9.81a20.8,20.8,0,0,0-8-1.44c-12.54,0-19.15,9.27-19.15,21.81,0,14.67,7.6,24.09,19.91,24.09,7.76,0,11.56-3.57,15.43-11.17Z" transform="translate(-135.85 -296.72)"/><path class="cls-3" d="M277.15,425.48v-2.66c6.17-.76,6.93-1.71,5.6-5.32s-3.13-8.46-5.13-14.44H257.1c-1.52,4.27-2.94,8-4.27,11.87-2.09,6.18-.76,6.94,7,7.89v2.66h-22v-2.66c6-.76,7.51-1.43,10.83-10L268.41,363l3-.57c6,16.24,12.54,34.2,18.52,50.63,3,8.27,3.9,9,10.64,9.79v2.66Zm-9.5-50.64c-3,8.17-6.27,16.82-9.12,24.32h17.76Z" transform="translate(-135.85 -296.72)"/><path class="cls-3" d="M359.32,426.24c-1.23,0-2.28-.1-3.51-.19-6.94-.48-10.64-2.28-14.82-8.17-3.52-4.85-6.94-10.83-10-15.68-1.9-3-3.13-3.61-8-3.61h-3.32v14.92c0,8.07,1,8.55,8.64,9.31v2.66H303v-2.66c7.88-.86,8.55-1.24,8.55-9.31V375.6c0-8.07-1.05-8.36-8.55-9.21v-2.66h24.22c6.94,0,11.59.85,15.2,3.23,3.9,2.47,6.46,6.74,6.46,12.54,0,8.17-5.22,13.3-12.25,16.34,1.71,2.94,5.79,9.31,8.64,13.58a87.3,87.3,0,0,0,7.51,9.79,13.7,13.7,0,0,0,6.93,4.37Zm-35.05-30.88c4.94,0,8.07-.76,10.45-2.75,3.7-2.76,5.22-6.56,5.22-11.69,0-10.16-6.74-13.87-14.06-13.87-2.75,0-4.37.38-5,.95-.86.67-1.14,1.62-1.14,4.09v23.27Z" transform="translate(-135.85 -296.72)"/><path class="cls-2" d="M381.49,369.9c10.72,0,17.49,2.13,22.2,6.61,3.72,3.65,6.46,9,6.46,16.27,0,8.89-3.65,16.11-9.5,20.52s-13.15,6-22.5,6H360.37v-2.13c6.53-.6,6.84-1.14,6.84-7.37V379.48c0-6.54-.92-6.84-6.84-7.45V369.9Zm-7.67,39.29c0,5.7,2.43,7.3,8.13,7.3,13.68,0,20.67-9.35,20.67-22.65,0-8.28-2.81-14.59-8.81-18.24-3.5-2.2-7.91-3-13-3-3.42,0-5.24.46-6,1.06s-1,1.3-1,4.26Z" transform="translate(-135.85 -296.72)"/></svg>