<svg xmlns="http://www.w3.org/2000/svg" width="205.293" height="163.022" viewBox="0 0 205.293 163.022">
  <g id="グループ_29" data-name="グループ 29" transform="translate(-4.833 -215.069)">
    <path id="パス_35" data-name="パス 35" d="M9.666,219.986C113.79,185.976,86.4,342.14,198.138,269.47,104.772,391.8,87.032,217.171,9.666,219.986" fill="#335ca0"/>
    <path id="パス_36" data-name="パス 36" d="M8.144,245.446c101.983-50.687,82.379,114.441,189.994,24.024C111.324,406.382,85.052,230.148,8.144,245.446" fill="#1d335c"/>
    <path id="パス_37" data-name="パス 37" d="M7.675,278.48c98.132-70.968,89.244,102.573,190.463-9.01C120.521,423.048,83.126,247.741,7.675,278.48" fill="#335ca0"/>
    <path id="パス_38" data-name="パス 38" d="M132.27,237.276V248.5H121.042a3.743,3.743,0,0,0-3.743,3.743v13.1a3.743,3.743,0,0,0,3.743,3.743H132.27v11.228a3.742,3.742,0,0,0,3.742,3.742h14.971a3.742,3.742,0,0,0,3.743-3.742V269.089h11.227a3.743,3.743,0,0,0,3.743-3.743v-13.1a3.743,3.743,0,0,0-3.743-3.743H154.726V237.276a3.742,3.742,0,0,0-3.743-3.742H136.012A3.742,3.742,0,0,0,132.27,237.276Z" fill="#6da34d"/>
    <g id="グループ_28" data-name="グループ 28">
      <g id="グループ_26" data-name="グループ 26">
        <g id="グループ_25" data-name="グループ 25">
          <text id="MED_EXP" data-name="MED  EXP" transform="translate(4.833 369.092)" fill="#6da34d" font-size="37" font-family="GillSans-Bold, Gill Sans" font-weight="700" letter-spacing="0.032em"><tspan x="0" y="0" xml:space="preserve">MED  EXP</tspan></text>
        </g>
      </g>
      <g id="グループ_27" data-name="グループ 27">
        <path id="パス_39" data-name="パス 39" d="M118.527,360.871l-6.984-14.113,0,0A6.476,6.476,0,0,0,99.9,352.44l6.985,14.113,0,0a6.476,6.476,0,1,0,11.641-5.678Zm-15.983-10.393a2.785,2.785,0,0,1,3.419-3.838Zm12.325,17.667a4.934,4.934,0,0,1-6.6-2.272l0,0h0l-3.218-6.5a3.445,3.445,0,0,1,.18-.3,8.27,8.27,0,0,1,1.27-1.47,9.568,9.568,0,0,1,3.283-2.028,7.018,7.018,0,0,1,4.321-.151l3.034,6.13v0a4.934,4.934,0,0,1-2.272,6.6Z" fill="#6da34d"/>
      </g>
      <text transform="translate(93.023 353.18)" font-size="10" font-family="ArialMT, Arial"/>    </g>
  </g>
</svg>
