<svg id="レイヤー_1" data-name="レイヤー 1" xmlns="http://www.w3.org/2000/svg" viewBox="0 0 505.71 118.67"><defs><style>.cls-1,.cls-2{fill:#fff;}.cls-2{stroke:#fff;stroke-linejoin:round;}</style></defs><path class="cls-1" d="M-409.9,191.5l-.06.1a3.73,3.73,0,0,0,2.23,5.56c18.93,5,30.3,12.44,30.3,19.45,0,11.9-32.72,25.16-79.66,25.16s-79.66-13.26-79.66-25.16c0-6.38,9.41-13.14,25.36-18.05a3.73,3.73,0,0,0,2.06-5.57l-.05-.07a3.69,3.69,0,0,0-4.21-1.54c-20.09,6.36-30.6,16-30.6,25.23,0,15.8,30.53,32.6,87.1,32.6s87.1-16.8,87.1-32.6c0-10-12.32-20.47-35.8-26.75A3.7,3.7,0,0,0-409.9,191.5Z" transform="translate(544.19 -130.53)"/><path class="cls-1" d="M-453.23,227.34l-14.08-.07c-46.91-10.47-45.23-72.48-45.21-73.1a2.72,2.72,0,0,1,2.8-2.61,2.7,2.7,0,0,1,2.6,2.8c0,.58-1.52,57.88,40.7,67.57h12.59c42.21-9.68,40.62-65.9,40.6-66.47a2.7,2.7,0,0,1,2.6-2.8,2.69,2.69,0,0,1,2.8,2.59c0,.62,1.8,61.55-45.11,72Z" transform="translate(544.19 -130.53)"/><ellipse class="cls-1" cx="84.01" cy="23.18" rx="51.83" ry="23.18"/><path class="cls-2" d="M-442.3,201.6c-16.32,14.34-29.58,3.21-32.66,1-.1-.08-.23.06-.15.16,2.73,3.47,16.25,18.42,33-1C-442,201.67-442.2,201.51-442.3,201.6Z" transform="translate(544.19 -130.53)"/><ellipse cx="84.01" cy="23.18" rx="43.96" ry="19.38"/><path d="M-460.17,134.83c11.73,0,22.75,2,31,5.74,8,3.58,12.43,8.25,12.43,13.14s-4.41,9.57-12.43,13.15c-8.27,3.7-19.29,5.74-31,5.74s-22.76-2-31-5.74c-8-3.58-12.43-8.25-12.43-13.15s4.41-9.56,12.43-13.14c8.27-3.7,19.29-5.74,31-5.74m0-1c-24.56,0-44.46,8.9-44.46,19.88s19.9,19.89,44.46,19.89,44.45-8.9,44.45-19.89-19.9-19.88-44.45-19.88Z" transform="translate(544.19 -130.53)"/><path class="cls-1" d="M-461.75,173.91c7.65-.38,15.63-.84,22-2.32,14.76-3.42,24.12-10.08,24.12-17.88,0-11.15-20.65-20.19-46.11-20.19,0,0,23.94,6.39,18.66,11.45-3.35,3.21-31.31,2.86-38.06,9.81S-483.36,164.46-461.75,173.91Z" transform="translate(544.19 -130.53)"/><path d="M-460.17,134.83c11.73,0,22.75,2,31,5.74,8,3.58,12.43,8.25,12.43,13.14s-4.41,9.57-12.43,13.15c-8.27,3.7-19.29,5.74-31,5.74s-22.76-2-31-5.74c-8-3.58-12.43-8.25-12.43-13.15s4.41-9.56,12.43-13.14c8.27-3.7,19.29-5.74,31-5.74m0-1c-24.56,0-44.46,8.9-44.46,19.88s19.9,19.89,44.46,19.89,44.45-8.9,44.45-19.89-19.9-19.88-44.45-19.88Z" transform="translate(544.19 -130.53)"/><path class="cls-1" d="M-354.41,194.24h1.21a19.17,19.17,0,0,0,2.25,6.39,8.27,8.27,0,0,0,7.47,4.08,6,6,0,0,0,4.31-1.51,5.18,5.18,0,0,0,1.59-3.92,5.39,5.39,0,0,0-.92-3,9.18,9.18,0,0,0-3.21-2.77l-4.08-2.34a23.29,23.29,0,0,1-6.61-4.85,8.53,8.53,0,0,1-2.12-5.77,8.65,8.65,0,0,1,2.92-6.71,10.53,10.53,0,0,1,7.34-2.63A14.16,14.16,0,0,1-340,172a18.68,18.68,0,0,0,2.61.73,1.9,1.9,0,0,0,.95-.18,1.68,1.68,0,0,0,.51-.59h.87l.26,10.18h-1.13a17.18,17.18,0,0,0-2-5.51,7.25,7.25,0,0,0-6.53-3.65,5.23,5.23,0,0,0-4,1.57,5.27,5.27,0,0,0-1.46,3.69q0,3.36,5,6l4.81,2.59q7.79,4.25,7.78,9.86a8.81,8.81,0,0,1-3.23,7,12.55,12.55,0,0,1-8.43,2.74,19.43,19.43,0,0,1-4.95-.73,22,22,0,0,0-3.28-.73,1.06,1.06,0,0,0-.77.31,2.17,2.17,0,0,0-.51.75h-1Z" transform="translate(544.19 -130.53)"/><path class="cls-1" d="M-328.86,220.81c2.27-.15,3.71-.63,4.33-1.46a6.64,6.64,0,0,0,.92-3.91v-35c0-1.85-.22-3-.67-3.56a3.28,3.28,0,0,0-2.54-.78q-.4,0-.75,0c-.23,0-.56.07-1,.15V175l3.47-1.13q.18,0,7.33-2.52a.32.32,0,0,1,.28.17.79.79,0,0,1,.09.38v4.93a26.12,26.12,0,0,1,4.23-3.58,12.64,12.64,0,0,1,6.75-2,11,11,0,0,1,8.67,4.28q3.63,4.29,3.63,11.72a21.84,21.84,0,0,1-4.36,13.24q-4.36,5.94-11,5.94a11,11,0,0,1-3.54-.51,10.58,10.58,0,0,1-4.3-2.81v12c0,2.45.4,4,1.2,4.52s2.56.94,5.26,1.13V222h-18Zm14.4-18.12a8,8,0,0,0,4.43,1.22q3.94,0,6.73-3.92t2.79-10.91q0-6.71-2.9-10a8.7,8.7,0,0,0-6.73-3.32,8.05,8.05,0,0,0-4.93,1.66c-1.48,1.1-2.22,2.19-2.22,3.26V199A7.33,7.33,0,0,0-314.46,202.69Z" transform="translate(544.19 -130.53)"/><path class="cls-1" d="M-290.4,204.71q3.91-.36,4.93-1.33t1-5.24v-17.4a11.08,11.08,0,0,0-.33-3.29,2.19,2.19,0,0,0-2.3-1.49,4,4,0,0,0-.78.07c-.26.05-1,.24-2.21.58v-1.13l1.57-.51q6.39-2.08,8.91-3.14a4.78,4.78,0,0,1,1.31-.44,2,2,0,0,1,.07.55v26.2q0,4.17,1,5.22c.66.71,2.18,1.16,4.54,1.35v1H-290.4Zm5.81-48.79a3.62,3.62,0,0,1,2.7-1.13,3.66,3.66,0,0,1,2.68,1.11,3.68,3.68,0,0,1,1.11,2.7,3.64,3.64,0,0,1-1.11,2.67,3.66,3.66,0,0,1-2.68,1.11,3.64,3.64,0,0,1-2.7-1.11,3.67,3.67,0,0,1-1.1-2.67A3.71,3.71,0,0,1-284.59,155.92Z" transform="translate(544.19 -130.53)"/><path class="cls-1" d="M-263.06,189.64q3.35-2.19,13.39-5.95v-3.1a12.7,12.7,0,0,0-.73-5.18q-1.24-2.44-5.14-2.45a7.13,7.13,0,0,0-3.55.95,3,3,0,0,0-1.67,2.7,9.88,9.88,0,0,0,.18,1.48,10.64,10.64,0,0,1,.18,1.33,3,3,0,0,1-1.35,2.85,3.36,3.36,0,0,1-1.82.47,3,3,0,0,1-2.52-1.07,3.68,3.68,0,0,1-.88-2.39q0-2.57,3.16-5.35t9.25-2.79q7.08,0,9.6,4.6a15.87,15.87,0,0,1,1.35,7.33v14.64a10,10,0,0,0,.29,2.92,1.9,1.9,0,0,0,2,1.42,3.17,3.17,0,0,0,1.39-.26,14.07,14.07,0,0,0,1.9-1.24v1.9a12,12,0,0,1-2.52,2.34,7.38,7.38,0,0,1-4.16,1.38,4.06,4.06,0,0,1-3.6-1.6,7.19,7.19,0,0,1-1.22-3.83,35.13,35.13,0,0,1-4.74,3.57,12.4,12.4,0,0,1-6.32,2,7.58,7.58,0,0,1-5.44-2.21,7.42,7.42,0,0,1-2.29-5.6Q-268.35,193.19-263.06,189.64Zm13.39-4.12a32.94,32.94,0,0,0-6.93,3.06q-5.26,3.25-5.26,7.38a5.62,5.62,0,0,0,2.19,4.89,5.34,5.34,0,0,0,3.18,1,8.71,8.71,0,0,0,4.61-1.35,4,4,0,0,0,2.21-3.43Z" transform="translate(544.19 -130.53)"/><path class="cls-1" d="M-237.59,204.53c2.24-.19,3.72-.59,4.45-1.18s1.1-1.87,1.1-3.82V183.07a14,14,0,0,0-.68-5.16,2.46,2.46,0,0,0-2.46-1.55,6.8,6.8,0,0,0-1,.09q-.6.09-1.26.24v-1.21l4.26-1.49c1.45-.51,2.46-.88,3-1.1,1.21-.46,2.46-1,3.74-1.57.17,0,.28.06.31.18a3.12,3.12,0,0,1,.06.77v6a28,28,0,0,1,4.52-5.08,7,7,0,0,1,4.52-1.82,4.22,4.22,0,0,1,3,1.11,3.67,3.67,0,0,1,1.18,2.79,3.67,3.67,0,0,1-.9,2.52,2.86,2.86,0,0,1-2.24,1,4.17,4.17,0,0,1-2.79-1.27,4,4,0,0,0-2.21-1.28c-.85,0-1.9.69-3.14,2.06a6.33,6.33,0,0,0-1.86,4.25V199c0,2.09.48,3.55,1.46,4.36s2.59,1.2,4.85,1.15v1.21h-18Z" transform="translate(544.19 -130.53)"/><path class="cls-1" d="M-186.9,175.06q3.87,3.57,3.87,10.09h-23.18c.25,5.64,1.52,9.74,3.84,12.31a10.69,10.69,0,0,0,8.21,3.86,10.38,10.38,0,0,0,6.46-2,20.16,20.16,0,0,0,4.85-5.68l1.28.43a20.83,20.83,0,0,1-5.6,8.59,13.94,13.94,0,0,1-10.06,4,12.31,12.31,0,0,1-10.6-5.18,19.89,19.89,0,0,1-3.74-11.93,19.46,19.46,0,0,1,4.34-12.67,13.93,13.93,0,0,1,11.32-5.33A12.9,12.9,0,0,1-186.9,175.06Zm-17.48,2.79a14.5,14.5,0,0,0-1.68,5h15.4a15.09,15.09,0,0,0-1.39-5.44q-1.78-3.21-6-3.21A7,7,0,0,0-204.38,177.85Z" transform="translate(544.19 -130.53)"/><path class="cls-1" d="M-134.73,173.67c2.2,1.56,3.3,3.28,3.3,5.14a3.49,3.49,0,0,1-.84,2.24,3.14,3.14,0,0,1-2.59,1,3.2,3.2,0,0,1-2.24-.88,5,5,0,0,1-1.41-2.55l-.44-1.75a4.39,4.39,0,0,0-1.64-2.74,5.83,5.83,0,0,0-3.17-.77,8.64,8.64,0,0,0-7,3.64q-2.86,3.63-2.86,9.66a16.59,16.59,0,0,0,3.15,9.91A10,10,0,0,0-142,201a10.22,10.22,0,0,0,6.75-2.48,23.22,23.22,0,0,0,3.8-4.54l1,.62a28.29,28.29,0,0,1-4.38,6.94,13.39,13.39,0,0,1-10.22,4.9,13.7,13.7,0,0,1-10.07-4.49q-4.38-4.49-4.38-12.19a19,19,0,0,1,4.78-13,15.39,15.39,0,0,1,12.08-5.44A13.2,13.2,0,0,1-134.73,173.67Z" transform="translate(544.19 -130.53)"/><path class="cls-1" d="M-120,189.64q3.36-2.19,13.39-5.95v-3.1a12.7,12.7,0,0,0-.73-5.18c-.82-1.63-2.54-2.45-5.14-2.45a7.12,7.12,0,0,0-3.54.95,3,3,0,0,0-1.68,2.7,9.88,9.88,0,0,0,.18,1.48,10.64,10.64,0,0,1,.18,1.33,3,3,0,0,1-1.35,2.85,3.36,3.36,0,0,1-1.82.47,3,3,0,0,1-2.52-1.07,3.74,3.74,0,0,1-.88-2.39c0-1.71,1.06-3.49,3.16-5.35s5.19-2.79,9.25-2.79q7.08,0,9.6,4.6a15.87,15.87,0,0,1,1.35,7.33v14.64a10,10,0,0,0,.29,2.92,1.91,1.91,0,0,0,2,1.42,3.14,3.14,0,0,0,1.39-.26,14.07,14.07,0,0,0,1.9-1.24v1.9a12,12,0,0,1-2.52,2.34,7.36,7.36,0,0,1-4.16,1.38,4.07,4.07,0,0,1-3.6-1.6,7.28,7.28,0,0,1-1.22-3.83,35.13,35.13,0,0,1-4.74,3.57,12.4,12.4,0,0,1-6.32,2,7.54,7.54,0,0,1-5.43-2.21,7.39,7.39,0,0,1-2.3-5.6Q-125.26,193.19-120,189.64Zm13.39-4.12a32.94,32.94,0,0,0-6.93,3.06q-5.25,3.25-5.26,7.38a5.62,5.62,0,0,0,2.19,4.89,5.34,5.34,0,0,0,3.18,1,8.71,8.71,0,0,0,4.61-1.35,4,4,0,0,0,2.21-3.43Z" transform="translate(544.19 -130.53)"/><path class="cls-1" d="M-93.37,204.71q3.87-.18,5.09-1.44T-87,198V174.53h-6.24v-2.44H-87a26.6,26.6,0,0,1,1.57-9.75q3-7.62,11-7.62A12.52,12.52,0,0,1-68.72,156c1.69.85,2.54,2,2.54,3.42a3.12,3.12,0,0,1-.87,2.16,2.76,2.76,0,0,1-2.11.95,2.76,2.76,0,0,1-1.81-.64,10.73,10.73,0,0,1-1.82-2.25l-.62-.95a5.07,5.07,0,0,0-1.19-1.29,3.14,3.14,0,0,0-1.93-.53,3.7,3.7,0,0,0-3.74,2.74,11.25,11.25,0,0,0-.54,3.83v8.65h9.08v2.44h-9.08V198q0,4.13,1.11,5.28c.74.76,2.68,1.26,5.82,1.47v1H-93.37Z" transform="translate(544.19 -130.53)"/><path class="cls-1" d="M-43.81,175.06q3.87,3.57,3.87,10.09H-63.11q.36,8.46,3.83,12.31a10.71,10.71,0,0,0,8.21,3.86,10.38,10.38,0,0,0,6.46-2,20.16,20.16,0,0,0,4.85-5.68l1.28.43a20.73,20.73,0,0,1-5.6,8.59,13.94,13.94,0,0,1-10.06,4,12.32,12.32,0,0,1-10.6-5.18,19.89,19.89,0,0,1-3.74-11.93,19.46,19.46,0,0,1,4.34-12.67,13.93,13.93,0,0,1,11.32-5.33A12.9,12.9,0,0,1-43.81,175.06Zm-17.48,2.79a14.5,14.5,0,0,0-1.68,5h15.4a15.32,15.32,0,0,0-1.38-5.44,6.31,6.31,0,0,0-6-3.21A7,7,0,0,0-61.29,177.85Z" transform="translate(544.19 -130.53)"/></svg>