<?xml version="1.0" encoding="utf-8"?>
<!-- Generator: Adobe Illustrator 26.0.3, SVG Export Plug-In . SVG Version: 6.00 Build 0)  -->
<svg version="1.1" id="レイヤー_1" xmlns="http://www.w3.org/2000/svg" xmlns:xlink="http://www.w3.org/1999/xlink" x="0px"
	 y="0px" viewBox="0 0 595.28 595.28" style="enable-background:new 0 0 595.28 595.28;" xml:space="preserve">
<style type="text/css">
	.st0{fill:url(#SVGID_1_);}
</style>
<linearGradient id="SVGID_1_" gradientUnits="userSpaceOnUse" x1="96.9553" y1="120.4286" x2="455.2637" y2="441.8965">
	<stop  offset="0" style="stop-color:#F1914C"/>
	<stop  offset="1" style="stop-color:#D44846"/>
</linearGradient>
<path class="st0" d="M360.22,203.46c-6.79,0-13.48,0.45-20.03,1.32c0-0.44,0.02-0.88,0.02-1.32c0-83.95-68.05-152-152-152
	s-152,68.05-152,152s68.05,152,152,152c6.79,0,13.48-0.45,20.03-1.32c0,0.44-0.02,0.88-0.02,1.32c0,83.95,68.05,152,152,152
	s152-68.05,152-152S444.17,203.46,360.22,203.46z"/>
</svg>
